<?xml version="1.0" encoding="utf-8"?>
<!-- Svg Vector Icons : http://www.onlinewebfonts.com/icon -->
<!DOCTYPE svg PUBLIC "-//W3C//DTD SVG 1.1//EN" "http://www.w3.org/Graphics/SVG/1.1/DTD/svg11.dtd">
<svg version="1.1" xmlns="http://www.w3.org/2000/svg" xmlns:xlink="http://www.w3.org/1999/xlink" x="0px" y="0px" viewBox="0 0 1000 1000" enable-background="new 0 0 1000 1000" xml:space="preserve">
<metadata> Svg Vector Icons : http://www.onlinewebfonts.com/icon </metadata>
<g><g transform="translate(0.000000,512.000000) scale(0.100000,-0.100000)"><path d="M4751,4994.2c-337.1-72.8-679.9-342.8-838.8-660.7c-82.4-166.6-137.9-365.8-137.9-511.4v-82.4l-787.1-394.5l-789-394.5l-174.3,88.1c-373.5,189.6-710.5,191.5-1082.1,7.7c-229.8-113-440.5-323.7-553.5-553.5c-180-365.8-180-702.9,0-1068.7c113-229.8,323.7-440.5,553.5-553.5c362-178.1,706.7-180,1057.2-5.8l151.3,76.6l371.5-317.9c287.3-247.1,365.8-325.6,354.3-348.6c-7.7-17.2-314.1-612.9-679.9-1325.3l-666.5-1296.6l-145.5,9.6c-455.8,28.7-938.4-258.6-1149.1-685.6c-180-365.8-180-702.9,0-1068.7c113-229.8,323.7-440.5,553.5-553.5c365.8-180,702.9-180,1068.7,0c231.7,114.9,440.5,323.7,551.6,551.6c42.1,90,82.3,178.1,90,197.3c9.6,30.7,145.6,32.6,2501.2,32.6s2491.6-1.9,2501.2-34.5c5.8-17.2,46-105.3,90-195.4c63.2-128.3,111.1-195.4,233.7-316c407.9-407.9,976.7-484.5,1461.3-197.3c137.9,80.4,360,302.6,440.5,440.5c151.3,256.6,206.8,566.9,149.4,836.9c-124.5,586-687.5,1028.5-1260.2,992.1l-147.5-9.6l-633.9,1237.2L7198.6,125.8l28.7,59.4c132.1,273.9,915.4,1744.7,927,1740.9c9.6-1.9,78.5-26.8,155.1-53.6c185.8-65.1,406-80.4,595.6-40.2c362,76.6,699,337.1,859.9,664.6c180,365.8,180,702.9,0,1068.7c-113,229.8-323.7,440.5-553.5,553.5c-365.8,180-702.9,180-1068.7,0c-229.8-113-440.5-323.7-553.5-553.5c-88.1-178.1-137.9-369.6-137.9-534.3c0-272,132.2-597.5,325.6-808.2l111.1-122.6l-421.3-802.5c-231.7-442.4-427.1-810.1-432.8-817.8c-7.7-5.7-291.1,526.7-630.1,1187.4l-614.8,1198.9l97.7,109.2c459.6,507.5,444.3,1191.2-34.5,1673.9C5549.7,4954,5151.3,5078.5,4751,4994.2z M5239.4,4687.8c407.9-107.3,679.9-461.6,679.9-890.6c0-519-400.3-919.3-919.3-919.3c-519,0-919.3,400.3-919.3,919.3C4080.7,4408.1,4645.7,4841,5239.4,4687.8z M8916.5,3921.7c407.9-107.3,679.9-461.6,679.9-890.6c0-519-400.3-919.3-919.3-919.3c-519,0-919.3,400.3-919.3,919.3C7757.9,3642.1,8322.8,4074.9,8916.5,3921.7z M3914.1,3261c44-90,118.8-199.2,185.8-272l111.1-122.6L3703.4,1882c-279.6-542-542-1057.2-586-1143.4l-80.4-159l-329.4,281.5L2380,1142.8l67,86.2c149.4,197.3,254.7,496,254.7,729.7c0,214.5-82.4,475-210.7,662.7c-30.7,47.9-57.5,90-57.5,93.8c0,13.4,1363.6,697.1,1388.5,697.1C3833.6,3412.3,3873.9,3345.2,3914.1,3261z M1715.5,2849.2c407.9-107.3,679.9-461.6,679.9-890.6c0-519-400.3-919.3-919.3-919.3c-519,0-919.3,400.3-919.3,919.3C556.8,2569.6,1121.7,3002.4,1715.5,2849.2z M4751,2602.1l105.3-24.9l68.9-1242.9c38.3-683.7,67-1246.8,63.2-1250.6c-3.8-3.8-61.3-30.7-128.3-59.4C4641.9-67.6,4440.8-226.6,4301-420l-38.3-51.7L3793.4-69.5c-258.5,220.2-480.7,413.7-494.1,427.1c-21.1,21.1,78.5,227.9,570.7,1185.5l595.6,1160.6l90-38.3C4605.5,2644.3,4693.6,2615.5,4751,2602.1z M6198.9,1409l656.9-1279.3l-176.2-335.2c-95.8-183.8-187.7-360-206.8-388.8l-32.6-53.6l-70.9,130.2c-109.2,195.4-323.7,398.3-528.6,499.9c-157,78.5-365.8,136-486.4,137.9h-59.4l-63.2,1164.4c-34.5,639.7-63.2,1191.2-65.1,1227.6c-3.8,63.2-1.9,65.1,111.1,97.7c63.2,17.2,145.5,46,181.9,61.3c36.4,15.3,70.9,26.8,74.7,23C5538.2,2690.2,5836.9,2111.8,6198.9,1409z M3670.8-364.5L4132.4-759l-24.9-120.7c-32.5-153.2-32.5-298.8,0-452l24.9-120.7l-921.2-637.8c-507.5-350.5-932.7-643.5-946.1-651.2c-15.3-9.6-61.3,19.2-128.3,82.4c-57.5,51.7-153.2,122.6-210.7,155.1l-107.3,61.3l180,346.6c99.6,191.5,394.5,764.2,655,1273.6l475,925l40.2-36.4C3192.1,47.3,3416.1-148.1,3670.8-364.5z M7585.5-1287.6c296.9-578.4,553.5-1076.3,566.9-1105.1c26.8-49.8,24.9-51.7-84.3-113c-176.2-99.6-383-323.7-478.8-517.1c-76.6-155.1-136-365.8-137.9-480.7v-53.6H5003.8H2556.2l-21.1,151.3c-13.4,82.4-44.1,204.9-72.8,271.9c-26.8,65.1-42.1,126.4-34.5,134.1c9.6,7.7,423.3,294.9,923.1,639.7l907.8,628.2l38.3-55.5c97.7-141.7,314.1-327.5,475-406c363.9-180,704.8-180,1062.9-1.9c358.1,176.2,618.6,528.6,679.9,919.3c19.2,124.5,53.6,201.1,264.3,605.2c132.1,254.7,247,457.7,252.8,450.1C7039.7-228.5,7288.6-707.3,7585.5-1287.6z M1562.2-2666.5c407.9-107.2,679.9-461.6,679.9-890.6c0-519-400.3-919.3-919.3-919.3c-519,0-919.3,400.3-919.3,919.3C403.6-2946.1,968.5-2513.3,1562.2-2666.5z M8916.5-2666.5c407.9-107.2,679.9-461.6,679.9-890.6c0-519-400.3-919.3-919.3-919.3c-519,0-919.3,400.3-919.3,919.3C7757.9-2946.1,8322.8-2513.3,8916.5-2666.5z"/></g></g>
</svg>